<?xml version="1.0" encoding="UTF-8"?>
<svg id="Layer_1" xmlns="http://www.w3.org/2000/svg" version="1.1" viewBox="0 0 512 512">
  <!-- Generator: Adobe Illustrator 29.3.1, SVG Export Plug-In . SVG Version: 2.1.0 Build 151)  -->
  <defs>
    <style>
      .st0 {
        fill: #c9c9c9;
      }

      .st1 {
        fill: #6191af;
      }

      .st2 {
        fill: #dbdbdb;
      }

      .st3 {
        fill: #749ebc;
      }

      .st4 {
        fill: none;
        stroke: #fff;
        stroke-miterlimit: 10;
        stroke-width: 3px;
      }

      .st5 {
        fill: #aaa;
      }

      .st6 {
        fill: #487a99;
      }

      .st7 {
        fill: #edecf1;
      }

      .st8 {
        fill: #eaeaea;
      }

      .st9 {
        fill: #d1d1d1;
      }

      .st10 {
        fill: #f7f7f7;
      }
    </style>
  </defs>
  <g>
    <g>
      <polygon class="st2" points="353 131.1 196.8 40.9 196.8 301.3 353 391.5 353 131.1"/>
      <polygon class="st7" points="422.4 91 353 131.1 196.8 40.9 266.2 .8 422.4 91"/>
      <polygon class="st7" points="422.4 91 353 131.1 196.8 40.9 266.2 .8 422.4 91"/>
      <path class="st10" d="M196.8,40.9l156.2,90.2,69.4-40.1L266.2.8l-69.4,40.1ZM353,126.7L204.4,40.9l61.8-35.7,148.6,85.8-61.8,35.7Z"/>
      <polygon class="st0" points="422.4 91 422.4 351.4 353 391.5 353 131.1 422.4 91"/>
      <polygon class="st6" points="405.8 161.5 405.8 139.8 369.6 160.7 369.6 182.4 405.8 161.5"/>
      <polygon class="st3" points="405 141.1 405 161.1 370.3 181.1 370.3 161.1 405 141.1"/>
      <path class="st1" d="M405,161.1s-28.9,16.7-34.7,0v20l34.7-20Z"/>
      <polygon class="st6" points="405.8 201.6 405.8 179.8 369.6 200.7 369.6 222.5 405.8 201.6"/>
      <polygon class="st3" points="405 181.1 405 201.1 370.3 221.2 370.3 201.1 405 181.1"/>
      <path class="st1" d="M405,201.1s-28.9,16.7-34.7,0v20l34.7-20Z"/>
      <polygon class="st6" points="405.8 241.7 405.8 219.9 369.6 240.8 369.6 262.6 405.8 241.7"/>
      <polygon class="st3" points="405 221.2 405 241.2 370.3 261.3 370.3 241.2 405 221.2"/>
      <path class="st1" d="M405,241.2s-28.9,16.7-34.7,0v20l34.7-20Z"/>
      <polygon class="st6" points="405.8 281.7 405.8 260 369.6 280.9 369.6 302.6 405.8 281.7"/>
      <polygon class="st3" points="405 261.3 405 281.3 370.3 301.3 370.3 281.3 405 261.3"/>
      <path class="st1" d="M405,281.3s-28.9,16.7-34.7,0v20l34.7-20Z"/>
      <polygon class="st6" points="405.8 321.8 405.8 300.1 369.6 321 369.6 342.8 405.8 321.8"/>
      <polygon class="st3" points="405 301.4 405 321.4 370.3 341.4 370.3 321.4 405 301.4"/>
      <path class="st1" d="M405,321.4s-28.9,16.7-34.7,0v20l34.7-20Z"/>
      <g>
        <polygon class="st6" points="335.6 161.2 318.3 151.2 318.3 171.1 335.6 181.1 335.6 161.2"/>
        <polygon class="st3" points="334.9 179.9 334.9 161.6 319 152.4 319 170.7 334.9 179.9"/>
        <path class="st1" d="M319,152.4s0,14.6,15.9,27.5l-15.9-9.2v-18.3Z"/>
        <polygon class="st6" points="335.6 201.3 318.3 191.3 318.3 211.2 335.6 221.2 335.6 201.3"/>
        <polygon class="st3" points="334.9 220 334.9 201.7 319 192.5 319 210.8 334.9 220"/>
        <path class="st1" d="M319,192.5s0,14.6,15.9,27.5l-15.9-9.2v-18.3Z"/>
        <polygon class="st6" points="335.6 241.2 318.3 231.3 318.3 251.2 335.6 261.2 335.6 241.2"/>
        <polygon class="st3" points="334.9 260 334.9 241.6 319 232.5 319 250.8 334.9 260"/>
        <path class="st1" d="M319,232.5s0,14.6,15.9,27.5l-15.9-9.2v-18.3Z"/>
        <polygon class="st6" points="335.6 281.3 318.3 271.4 318.3 291.3 335.6 301.3 335.6 281.3"/>
        <polygon class="st3" points="334.9 300.1 334.9 281.7 319 272.6 319 290.9 334.9 300.1"/>
        <path class="st1" d="M319,272.6s0,14.6,15.9,27.5l-15.9-9.2v-18.3Z"/>
        <polygon class="st6" points="335.6 321.5 318.3 311.5 318.3 331.4 335.6 341.4 335.6 321.5"/>
        <polygon class="st3" points="334.9 340.2 334.9 321.9 319 312.7 319 331 334.9 340.2"/>
        <path class="st1" d="M319,312.7s0,14.6,15.9,27.5l-15.9-9.2v-18.3Z"/>
      </g>
      <g>
        <polygon class="st6" points="300.9 141 283.7 131.1 283.7 151 300.9 161 300.9 141"/>
        <polygon class="st3" points="300.2 159.8 300.2 141.4 284.4 132.3 284.4 150.6 300.2 159.8"/>
        <path class="st1" d="M284.4,132.3s0,14.6,15.9,27.5l-15.9-9.2v-18.3Z"/>
        <polygon class="st6" points="300.9 181.1 283.7 171.2 283.7 191.1 300.9 201.1 300.9 181.1"/>
        <polygon class="st3" points="300.2 199.9 300.2 181.5 284.4 172.4 284.4 190.7 300.2 199.9"/>
        <path class="st1" d="M284.4,172.4s0,14.6,15.9,27.5l-15.9-9.2v-18.3Z"/>
        <polygon class="st6" points="300.9 221.1 283.7 211.1 283.7 231.1 300.9 241 300.9 221.1"/>
        <polygon class="st3" points="300.2 239.8 300.2 221.5 284.4 212.3 284.4 230.7 300.2 239.8"/>
        <path class="st1" d="M284.4,212.3s0,14.6,15.9,27.5l-15.9-9.2v-18.3Z"/>
        <polygon class="st6" points="300.9 261.2 283.7 251.2 283.7 271.2 300.9 281.2 300.9 261.2"/>
        <polygon class="st3" points="300.2 280 300.2 261.6 284.4 252.4 284.4 270.8 300.2 280"/>
        <path class="st1" d="M284.4,252.4s0,14.6,15.9,27.5l-15.9-9.2v-18.3Z"/>
        <polygon class="st6" points="300.9 301.3 283.7 291.4 283.7 311.3 300.9 321.3 300.9 301.3"/>
        <polygon class="st3" points="300.2 320.1 300.2 301.7 284.4 292.6 284.4 310.9 300.2 320.1"/>
        <path class="st1" d="M284.4,292.6s0,14.6,15.9,27.5l-15.9-9.2v-18.3Z"/>
      </g>
      <g>
        <polygon class="st6" points="266.3 120.9 249 110.9 249 130.9 266.3 140.8 266.3 120.9"/>
        <polygon class="st3" points="265.6 139.6 265.6 121.3 249.7 112.1 249.7 130.5 265.6 139.6"/>
        <path class="st1" d="M249.7,112.1s0,14.6,15.9,27.5l-15.9-9.2v-18.3Z"/>
        <polygon class="st6" points="266.3 161 249 151 249 171 266.3 181 266.3 161"/>
        <polygon class="st3" points="265.6 179.8 265.6 161.4 249.7 152.2 249.7 170.6 265.6 179.8"/>
        <path class="st1" d="M249.7,152.2s0,14.6,15.9,27.5l-15.9-9.2v-18.3Z"/>
        <polygon class="st6" points="266.3 201 249 191 249 210.9 266.3 220.9 266.3 201"/>
        <polygon class="st3" points="265.6 219.7 265.6 201.4 249.7 192.2 249.7 210.5 265.6 219.7"/>
        <path class="st1" d="M249.7,192.2s0,14.6,15.9,27.5l-15.9-9.2v-18.3Z"/>
        <polygon class="st6" points="266.3 241.1 249 231.1 249 251.1 266.3 261 266.3 241.1"/>
        <polygon class="st3" points="265.6 259.8 265.6 241.5 249.7 232.3 249.7 250.7 265.6 259.8"/>
        <path class="st1" d="M249.7,232.3s0,14.6,15.9,27.5l-15.9-9.2v-18.3Z"/>
        <polygon class="st6" points="266.3 281.2 249 271.2 249 291.2 266.3 301.1 266.3 281.2"/>
        <polygon class="st3" points="265.6 299.9 265.6 281.6 249.7 272.4 249.7 290.8 265.6 299.9"/>
        <path class="st1" d="M249.7,272.4s0,14.6,15.9,27.5l-15.9-9.2v-18.3Z"/>
      </g>
      <g>
        <polygon class="st6" points="231.6 100.8 214.3 90.8 214.3 110.7 231.6 120.7 231.6 100.8"/>
        <polygon class="st3" points="230.9 119.5 230.9 101.2 215 92 215 110.3 230.9 119.5"/>
        <path class="st1" d="M215,92s0,14.6,15.9,27.5l-15.9-9.2v-18.3Z"/>
        <polygon class="st6" points="231.6 140.9 214.3 130.9 214.3 150.8 231.6 160.8 231.6 140.9"/>
        <polygon class="st3" points="230.9 159.6 230.9 141.3 215 132.1 215 150.4 230.9 159.6"/>
        <path class="st1" d="M215,132.1s0,14.6,15.9,27.5l-15.9-9.2v-18.3Z"/>
        <polygon class="st6" points="231.6 180.8 214.3 170.9 214.3 190.8 231.6 200.8 231.6 180.8"/>
        <polygon class="st3" points="230.9 199.6 230.9 181.2 215 172.1 215 190.4 230.9 199.6"/>
        <path class="st1" d="M215,172.1s0,14.6,15.9,27.5l-15.9-9.2v-18.3Z"/>
        <polygon class="st6" points="231.6 221 214.3 211 214.3 230.9 231.6 240.9 231.6 221"/>
        <polygon class="st3" points="230.9 239.7 230.9 221.4 215 212.2 215 230.5 230.9 239.7"/>
        <path class="st1" d="M215,212.2s0,14.6,15.9,27.5l-15.9-9.2v-18.3Z"/>
        <polygon class="st6" points="231.6 261.1 214.3 251.1 214.3 271 231.6 281 231.6 261.1"/>
        <polygon class="st3" points="230.9 279.8 230.9 261.5 215 252.3 215 270.6 230.9 279.8"/>
        <path class="st1" d="M215,252.3s0,14.6,15.9,27.5l-15.9-9.2v-18.3Z"/>
      </g>
    </g>
    <polygon class="st9" points="422.4 331.4 353 371.4 353 391.5 422.4 351.4 422.4 331.4"/>
    <polygon class="st5" points="353 371.4 196.8 281.3 196.8 301.4 353 391.5 353 371.4"/>
  </g>
  <polygon class="st9" points="61.5 451.9 130.9 491.9 130.9 512 61.5 471.9 61.5 451.9"/>
  <polygon class="st5" points="130.9 491.9 287.1 401.8 287.1 421.9 130.9 512 130.9 491.9"/>
  <line class="st4" x1="31.6" y1="205.9" x2="466.3" y2="456.9"/>
  <line class="st4" x1="498.1" y1="307.7" x2="276.1" y2="435.9"/>
  <g>
    <polygon class="st0" points="130.9 251.6 287.1 161.4 287.1 421.8 130.9 512 130.9 251.6"/>
    <polygon class="st7" points="61.5 211.5 130.9 251.6 287.1 161.4 217.7 121.3 61.5 211.5"/>
    <polygon class="st7" points="61.5 211.5 130.9 251.6 287.1 161.4 217.7 121.3 61.5 211.5"/>
    <path class="st10" d="M217.7,121.3L61.5,211.5l69.4,40.1,156.2-90.2-69.4-40.1ZM69.1,211.5l148.6-85.8,61.8,35.7-148.6,85.8-61.8-35.7Z"/>
    <polygon class="st8" points="61.5 211.5 61.5 471.9 130.9 512 130.9 251.6 61.5 211.5"/>
    <polygon class="st6" points="78.1 282 78.1 260.3 114.3 281.2 114.3 303 78.1 282"/>
    <polygon class="st3" points="78.9 261.6 78.9 281.6 113.6 301.6 113.6 281.6 78.9 261.6"/>
    <path class="st1" d="M78.9,281.6s28.9,16.7,34.7,0v20l-34.7-20Z"/>
    <polygon class="st6" points="78.1 322.1 78.1 300.3 114.3 321.2 114.3 343 78.1 322.1"/>
    <polygon class="st3" points="78.9 301.6 78.9 321.6 113.6 341.7 113.6 321.6 78.9 301.6"/>
    <path class="st1" d="M78.9,321.6s28.9,16.7,34.7,0v20l-34.7-20Z"/>
    <polygon class="st6" points="78.1 362.2 78.1 340.4 114.3 361.3 114.3 383.1 78.1 362.2"/>
    <polygon class="st3" points="78.9 341.7 78.9 361.7 113.6 381.8 113.6 361.7 78.9 341.7"/>
    <path class="st1" d="M78.9,361.7s28.9,16.7,34.7,0v20l-34.7-20Z"/>
    <polygon class="st6" points="78.1 402.2 78.1 380.5 114.3 401.4 114.3 423.1 78.1 402.2"/>
    <polygon class="st3" points="78.9 381.8 78.9 401.8 113.6 421.8 113.6 401.8 78.9 381.8"/>
    <path class="st1" d="M78.9,401.8s28.9,16.7,34.7,0v20l-34.7-20Z"/>
    <polygon class="st6" points="78.1 442.4 78.1 420.6 114.3 441.5 114.3 463.3 78.1 442.4"/>
    <polygon class="st3" points="78.9 421.9 78.9 441.9 113.6 462 113.6 441.9 78.9 421.9"/>
    <path class="st1" d="M78.9,441.9s28.9,16.7,34.7,0v20l-34.7-20Z"/>
    <g>
      <polygon class="st6" points="148.3 281.7 165.6 271.7 165.6 291.6 148.3 301.6 148.3 281.7"/>
      <polygon class="st3" points="149 300.4 149 282.1 164.9 272.9 164.9 291.2 149 300.4"/>
      <path class="st1" d="M164.9,272.9s0,14.6-15.9,27.5l15.9-9.2v-18.3Z"/>
      <polygon class="st6" points="148.3 321.8 165.6 311.8 165.6 331.8 148.3 341.7 148.3 321.8"/>
      <polygon class="st3" points="149 340.5 149 322.2 164.9 313 164.9 331.4 149 340.5"/>
      <path class="st1" d="M164.9,313s0,14.6-15.9,27.5l15.9-9.2v-18.3Z"/>
      <polygon class="st6" points="148.3 361.7 165.6 351.8 165.6 371.7 148.3 381.7 148.3 361.7"/>
      <polygon class="st3" points="149 380.5 149 362.1 164.9 353 164.9 371.3 149 380.5"/>
      <path class="st1" d="M164.9,353s0,14.6-15.9,27.5l15.9-9.2v-18.3Z"/>
      <polygon class="st6" points="148.3 401.9 165.6 391.9 165.6 411.8 148.3 421.8 148.3 401.9"/>
      <polygon class="st3" points="149 420.6 149 402.3 164.9 393.1 164.9 411.4 149 420.6"/>
      <path class="st1" d="M164.9,393.1s0,14.6-15.9,27.5l15.9-9.2v-18.3Z"/>
      <polygon class="st6" points="148.3 442 165.6 432 165.6 451.9 148.3 461.9 148.3 442"/>
      <polygon class="st3" points="149 460.7 149 442.4 164.9 433.2 164.9 451.5 149 460.7"/>
      <path class="st1" d="M164.9,433.2s0,14.6-15.9,27.5l15.9-9.2v-18.3Z"/>
    </g>
    <g>
      <polygon class="st6" points="183 261.5 200.2 251.6 200.2 271.5 183 281.5 183 261.5"/>
      <polygon class="st3" points="183.7 280.3 183.7 261.9 199.5 252.8 199.5 271.1 183.7 280.3"/>
      <path class="st1" d="M199.5,252.8s0,14.6-15.9,27.5l15.9-9.2v-18.3Z"/>
      <polygon class="st6" points="183 301.7 200.2 291.7 200.2 311.6 183 321.6 183 301.7"/>
      <polygon class="st3" points="183.7 320.4 183.7 302.1 199.5 292.9 199.5 311.2 183.7 320.4"/>
      <path class="st1" d="M199.5,292.9s0,14.6-15.9,27.5l15.9-9.2v-18.3Z"/>
      <polygon class="st6" points="183 341.6 200.2 331.6 200.2 351.6 183 361.5 183 341.6"/>
      <polygon class="st3" points="183.7 360.3 183.7 342 199.5 332.8 199.5 351.2 183.7 360.3"/>
      <path class="st1" d="M199.5,332.8s0,14.6-15.9,27.5l15.9-9.2v-18.3Z"/>
      <polygon class="st6" points="183 381.7 200.2 371.8 200.2 391.7 183 401.7 183 381.7"/>
      <polygon class="st3" points="183.7 400.5 183.7 382.1 199.5 373 199.5 391.3 183.7 400.5"/>
      <path class="st1" d="M199.5,373s0,14.6-15.9,27.5l15.9-9.2v-18.3Z"/>
      <polygon class="st6" points="183 421.8 200.2 411.9 200.2 431.8 183 441.8 183 421.8"/>
      <polygon class="st3" points="183.7 440.6 183.7 422.2 199.5 413.1 199.5 431.4 183.7 440.6"/>
      <path class="st1" d="M199.5,413.1s0,14.6-15.9,27.5l15.9-9.2v-18.3Z"/>
    </g>
    <g>
      <polygon class="st6" points="217.6 241.4 234.9 231.4 234.9 251.4 217.6 261.3 217.6 241.4"/>
      <polygon class="st3" points="218.3 260.1 218.3 241.8 234.2 232.6 234.2 251 218.3 260.1"/>
      <path class="st1" d="M234.2,232.6s0,14.6-15.9,27.5l15.9-9.2v-18.3Z"/>
      <polygon class="st6" points="217.6 281.5 234.9 271.5 234.9 291.5 217.6 301.5 217.6 281.5"/>
      <polygon class="st3" points="218.3 300.3 218.3 281.9 234.2 272.7 234.2 291.1 218.3 300.3"/>
      <path class="st1" d="M234.2,272.7s0,14.6-15.9,27.5l15.9-9.2v-18.3Z"/>
      <polygon class="st6" points="217.6 321.5 234.9 311.5 234.9 331.4 217.6 341.4 217.6 321.5"/>
      <polygon class="st3" points="218.3 340.2 218.3 321.9 234.2 312.7 234.2 331 218.3 340.2"/>
      <path class="st1" d="M234.2,312.7s0,14.6-15.9,27.5l15.9-9.2v-18.3Z"/>
      <polygon class="st6" points="217.6 361.6 234.9 351.6 234.9 371.6 217.6 381.5 217.6 361.6"/>
      <polygon class="st3" points="218.3 380.3 218.3 362 234.2 352.8 234.2 371.2 218.3 380.3"/>
      <path class="st1" d="M234.2,352.8s0,14.6-15.9,27.5l15.9-9.2v-18.3Z"/>
      <polygon class="st6" points="217.6 401.7 234.9 391.7 234.9 411.7 217.6 421.7 217.6 401.7"/>
      <polygon class="st3" points="218.3 420.5 218.3 402.1 234.2 392.9 234.2 411.3 218.3 420.5"/>
      <path class="st1" d="M234.2,392.9s0,14.6-15.9,27.5l15.9-9.2v-18.3Z"/>
    </g>
    <g>
      <polygon class="st6" points="252.3 221.3 269.5 211.3 269.5 231.2 252.3 241.2 252.3 221.3"/>
      <polygon class="st3" points="253 240 253 221.7 268.9 212.5 268.9 230.8 253 240"/>
      <path class="st1" d="M268.9,212.5s0,14.6-15.9,27.5l15.9-9.2v-18.3Z"/>
      <polygon class="st6" points="252.3 261.4 269.5 251.4 269.5 271.4 252.3 281.3 252.3 261.4"/>
      <polygon class="st3" points="253 280.1 253 261.8 268.9 252.6 268.9 271 253 280.1"/>
      <path class="st1" d="M268.9,252.6s0,14.6-15.9,27.5l15.9-9.2v-18.3Z"/>
      <polygon class="st6" points="252.3 301.3 269.5 291.4 269.5 311.3 252.3 321.3 252.3 301.3"/>
      <polygon class="st3" points="253 320.1 253 301.7 268.9 292.6 268.9 310.9 253 320.1"/>
      <path class="st1" d="M268.9,292.6s0,14.6-15.9,27.5l15.9-9.2v-18.3Z"/>
      <polygon class="st6" points="252.3 341.5 269.5 331.5 269.5 351.4 252.3 361.4 252.3 341.5"/>
      <polygon class="st3" points="253 360.2 253 341.9 268.9 332.7 268.9 351 253 360.2"/>
      <path class="st1" d="M268.9,332.7s0,14.6-15.9,27.5l15.9-9.2v-18.3Z"/>
      <polygon class="st6" points="252.3 381.6 269.5 371.6 269.5 391.6 252.3 401.5 252.3 381.6"/>
      <polygon class="st3" points="253 400.3 253 382 268.9 372.8 268.9 391.2 253 400.3"/>
      <path class="st1" d="M268.9,372.8s0,14.6-15.9,27.5l15.9-9.2v-18.3Z"/>
    </g>
  </g>
</svg>